<svg width="33" height="32" viewBox="0 0 33 32" fill="none" xmlns="http://www.w3.org/2000/svg">
<path fill-rule="evenodd" clip-rule="evenodd" d="M22.3818 10.1569C22.3818 13.5746 19.6572 16.315 16.2592 16.315C12.8612 16.315 10.1366 13.5746 10.1366 10.1569C10.1366 6.73784 12.8612 4 16.2592 4C19.6572 4 22.3818 6.73784 22.3818 10.1569ZM16.2591 27.2727C11.2683 27.2727 7.00688 26.4815 7.00688 23.3166C7.00688 20.1504 11.241 19.3304 16.2591 19.3304C21.25 19.3304 25.5114 20.1216 25.5114 23.2878C25.5114 26.4527 21.2773 27.2727 16.2591 27.2727ZM24.9982 10.268C24.9982 12.0103 24.4785 13.6333 23.5668 14.9826C23.4731 15.1214 23.5564 15.3088 23.7218 15.3376C23.9498 15.3769 24.1855 15.3992 24.4251 15.4057C26.815 15.4686 28.9601 13.9215 29.5527 11.5924C30.4305 8.13275 27.8531 5.02681 24.571 5.02681C24.2141 5.02681 23.8729 5.0648 23.5408 5.13292C23.4952 5.1434 23.447 5.16435 23.421 5.20496C23.3897 5.25474 23.4132 5.32155 23.4444 5.36478C24.4303 6.75466 24.9982 8.44976 24.9982 10.268ZM28.9561 17.8365C30.562 18.1522 31.6182 18.7967 32.0558 19.7333C32.4257 20.5023 32.4257 21.3944 32.0558 22.162C31.3864 23.6148 29.2283 24.0811 28.3896 24.2016C28.2163 24.2278 28.077 24.0772 28.0952 23.9029C28.5237 19.8774 25.1153 17.9688 24.2336 17.5299C24.1958 17.5103 24.188 17.4802 24.1919 17.4618C24.1945 17.4487 24.2102 17.4278 24.2388 17.4238C26.1468 17.3885 28.1981 17.6505 28.9561 17.8365ZM8.24176 15.4056C8.4814 15.399 8.71583 15.3781 8.94506 15.3375C9.11046 15.3087 9.19382 15.1213 9.10004 14.9825C8.18836 13.6332 7.6687 12.0101 7.6687 10.2679C7.6687 8.44965 8.23655 6.75454 9.22247 5.36466C9.25373 5.32143 9.27587 5.25462 9.24591 5.20485C9.21986 5.16555 9.17037 5.14328 9.12609 5.1328C8.79268 5.06468 8.45145 5.02669 8.09459 5.02669C4.81254 5.02669 2.23508 8.13263 3.1142 11.5923C3.7068 13.9214 5.85185 15.4685 8.24176 15.4056ZM8.47436 17.461C8.47827 17.4807 8.47045 17.5095 8.43399 17.5305C7.55096 17.9693 4.14257 19.8779 4.57106 23.9022C4.5893 24.0777 4.45124 24.227 4.27802 24.2022C3.43928 24.0816 1.2812 23.6153 0.611762 22.1625C0.240578 21.3936 0.240578 20.5028 0.611762 19.7338C1.04937 18.7972 2.10431 18.1527 3.71018 17.8357C4.46948 17.651 6.51946 17.389 8.42878 17.4244C8.45743 17.4283 8.47176 17.4492 8.47436 17.461Z" fill="#585858"/>
</svg>
