<svg width="31" height="30" viewBox="0 0 31 30" fill="none" xmlns="http://www.w3.org/2000/svg">
<path d="M15.6653 29.4713C23.8732 29.4713 30.527 22.8747 30.527 14.7374C30.527 6.60004 23.8732 0.00341797 15.6653 0.00341797C7.4574 0.00341797 0.803589 6.60004 0.803589 14.7374C0.803589 22.8747 7.4574 29.4713 15.6653 29.4713Z" fill="#FFDD15"/>
<path d="M29.1768 8.57337C29.1316 8.48546 29.085 8.39878 29.0383 8.31216C32.5611 15.5124 29.637 24.2152 22.4125 27.8649C15.188 31.5147 6.36727 28.7453 2.56177 21.6879C2.605 21.7762 2.64836 21.8646 2.69354 21.9525C6.42011 29.2028 15.3696 32.0853 22.6827 28.3907C29.9959 24.6962 32.9034 15.8237 29.1768 8.57337Z" fill="#D87D13"/>
<path d="M8.91736 1.6093C1.60422 5.30384 -1.30329 14.1764 2.42329 21.4267L28.9066 8.04753C25.18 0.797257 16.2305 -2.08526 8.91736 1.6093Z" fill="#FFEE71"/>
<path d="M15.6647 27.0028C22.4976 27.0028 28.0368 21.5113 28.0368 14.7371C28.0368 7.96288 22.4976 2.47131 15.6647 2.47131C8.83178 2.47131 3.2926 7.96288 3.2926 14.7371C3.2926 21.5113 8.83178 27.0028 15.6647 27.0028Z" fill="#FABF03"/>
<path d="M10.0478 3.80846C3.95973 6.8841 1.5393 14.2703 4.64161 20.3061L26.6885 9.16819C23.5861 3.13244 16.1359 0.732815 10.0478 3.80846Z" fill="#F7C908"/>
<path d="M10.0478 3.80846C3.95973 6.8841 1.5393 14.2703 4.64161 20.3061L26.6885 9.16819C23.5861 3.13244 16.1359 0.732815 10.0478 3.80846Z" fill="#F7C908"/>
<path d="M4.16854 11.473C6.27979 5.03023 13.2594 1.50416 19.758 3.59726C22.9055 4.61102 25.3628 6.75698 26.8204 9.4326C25.4077 6.51361 22.8389 4.15081 19.4878 3.07146C12.9892 0.978354 6.00953 4.50442 3.89828 10.9471C2.80957 14.2694 3.22806 17.7186 4.77989 20.5673C3.45302 17.8257 3.14599 14.5934 4.16854 11.473Z" fill="#D87D13"/>
<path d="M18.6151 14.0394C18.0133 13.6833 17.252 13.3805 16.3309 13.1309L15.7599 12.9756C15.4099 12.8722 15.132 12.7747 14.9264 12.6834C14.7206 12.5921 14.5686 12.4916 14.4705 12.3821C14.3722 12.2725 14.3231 12.1447 14.3231 11.9985C14.3231 11.8039 14.3952 11.6304 14.5395 11.4781C14.6837 11.3261 14.8834 11.2073 15.1382 11.122C15.393 11.0368 15.677 10.9941 15.9902 10.9941C16.4445 10.9941 16.8866 11.0809 17.3164 11.2544C17.7462 11.4279 18.1822 11.6913 18.6243 12.0443L20.4111 9.73404C19.7664 9.21061 19.0664 8.81035 18.3112 8.53334C17.8067 8.34833 17.2939 8.2266 16.7731 8.16516V6.65689H14.6547V8.25726C14.2659 8.34235 13.8971 8.46562 13.5495 8.62922C12.8249 8.97019 12.2538 9.4373 11.8363 10.0308C11.4187 10.6243 11.21 11.2895 11.21 12.0259C11.21 12.9453 11.5339 13.7244 12.1817 14.3636C12.8295 15.0028 13.7673 15.4716 14.9955 15.7698L15.5757 15.9067C16.0301 16.0163 16.383 16.1244 16.6349 16.2309C16.8866 16.3374 17.0646 16.4577 17.1691 16.5916C17.2734 16.7256 17.3257 16.8869 17.3257 17.0755C17.3257 17.3007 17.258 17.4955 17.1231 17.6599C16.9879 17.8243 16.7945 17.9506 16.5428 18.0388C16.291 18.1272 15.987 18.1713 15.631 18.1713C15.0968 18.1713 14.5733 18.0708 14.0606 17.8699C13.5479 17.669 13.0643 17.3738 12.61 16.9842L10.7679 19.2761C11.4495 19.8422 12.2186 20.2791 13.0751 20.5864C13.6034 20.776 14.1299 20.9067 14.6547 20.9793V22.5085H16.7731V20.9485C17.2495 20.8633 17.6939 20.7242 18.1039 20.527C18.8254 20.18 19.3902 19.6993 19.7986 19.0844C20.2069 18.4696 20.4111 17.7756 20.4111 17.0025C20.4111 16.3573 20.2622 15.7912 19.9644 15.3041C19.6665 14.8171 19.2168 14.3955 18.6151 14.0394Z" fill="white"/>
<path d="M19.036 14.6654C18.4342 14.3092 17.6729 14.0064 16.7518 13.7568L16.1808 13.6016C15.8308 13.4982 15.5529 13.4007 15.3473 13.3094C15.1415 13.218 14.9895 13.1176 14.8914 13.008C14.7931 12.8984 14.744 12.7707 14.744 12.6245C14.744 12.4298 14.8161 12.2563 14.9604 12.104C15.1047 11.952 15.3043 11.8332 15.5591 11.7479C15.8139 11.6628 16.0979 11.6201 16.4111 11.6201C16.8654 11.6201 17.3075 11.7069 17.7374 11.8804C18.1671 12.0539 18.6032 12.3172 19.0452 12.6702L20.832 10.36C20.1873 9.83655 19.4873 9.43627 18.7321 9.15929C18.2277 8.97428 17.7148 8.85254 17.194 8.79111V7.28284H15.0756V8.88321C14.6868 8.9683 14.3181 9.09156 13.9704 9.25516C13.2458 9.59614 12.6747 10.0632 12.2572 10.6568C11.8396 11.2503 11.6309 11.9154 11.6309 12.6519C11.6309 13.5712 11.9548 14.3504 12.6026 14.9895C13.2504 15.6287 14.1882 16.0975 15.4164 16.3957L15.9966 16.5326C16.451 16.6423 16.8039 16.7504 17.0558 16.8568C17.3075 16.9634 17.4855 17.0837 17.59 17.2175C17.6943 17.3515 17.7466 17.5129 17.7466 17.7014C17.7466 17.9267 17.6789 18.1215 17.5439 18.2858C17.4088 18.4502 17.2154 18.5766 16.9637 18.6648C16.7119 18.7531 16.4079 18.7972 16.0519 18.7972C15.5177 18.7972 14.9942 18.6968 14.4815 18.4959C13.9688 18.295 13.4852 17.9997 13.0309 17.6102L11.1888 19.9021C11.8704 20.4682 12.6395 20.905 13.496 21.2124C14.0243 21.402 14.5508 21.5327 15.0756 21.6053V23.1345H17.194V21.5745C17.6704 21.4893 18.1148 21.3502 18.5248 21.153C19.2463 20.806 19.8111 20.3253 20.2195 19.7104C20.6278 19.0955 20.832 18.4016 20.832 17.6284C20.832 16.9833 20.6831 16.4171 20.3853 15.9301C20.0874 15.4431 19.6377 15.0214 19.036 14.6654Z" fill="#D87D13"/>
<path d="M18.8255 14.248C18.2237 13.8919 17.4624 13.5891 16.5414 13.3395L15.9703 13.1843C15.6203 13.0809 15.3425 12.9834 15.1368 12.8921C14.931 12.8007 14.779 12.7003 14.6809 12.5908C14.5826 12.4811 14.5335 12.3534 14.5335 12.2072C14.5335 12.0125 14.6056 11.839 14.75 11.6867C14.8942 11.5347 15.0938 11.4159 15.3486 11.3306C15.6034 11.2455 15.8875 11.2028 16.2006 11.2028C16.6549 11.2028 17.097 11.2896 17.5269 11.4631C17.9566 11.6366 18.3927 11.8999 18.8347 12.2529L20.6216 9.94269C19.9768 9.41926 19.2769 9.01899 18.5216 8.74199C18.0172 8.55698 17.5043 8.43525 16.9835 8.37381V6.86554H14.8651V8.46591C14.4764 8.551 14.1076 8.67426 13.7599 8.83786C13.0353 9.17884 12.4642 9.64593 12.0467 10.2395C11.6291 10.833 11.4204 11.4981 11.4204 12.2346C11.4204 13.1539 11.7443 13.9331 12.3921 14.5722C13.0399 15.2114 13.9777 15.6802 15.2059 15.9784L15.7862 16.1153C16.2405 16.225 16.5935 16.333 16.8453 16.4395C17.0971 16.5461 17.2751 16.6664 17.3795 16.8003C17.4839 16.9342 17.5361 17.0956 17.5361 17.2842C17.5361 17.5094 17.4685 17.7042 17.3335 17.8685C17.1984 18.0329 17.0049 18.1593 16.7532 18.2475C16.5014 18.3358 16.1975 18.3799 15.8414 18.3799C15.3073 18.3799 14.7837 18.2795 14.2711 18.0786C13.7583 17.8777 13.2748 17.5825 12.8204 17.1929L10.9784 19.4848C11.6599 20.0509 12.429 20.4877 13.2856 20.7951C13.8139 20.9847 14.3404 21.1154 14.8651 21.188V22.7172H16.9835V21.1572C17.4599 21.072 17.9043 20.9329 18.3144 20.7357C19.0358 20.3887 19.6007 19.908 20.0091 19.2931C20.4173 18.6782 20.6216 17.9843 20.6216 17.2111C20.6216 16.566 20.4726 15.9998 20.1749 15.5128C19.877 15.0258 19.4273 14.6041 18.8255 14.248Z" fill="#FFDD15"/>
<path d="M18.8256 14.2481C18.2238 13.8919 17.4625 13.5891 16.5415 13.3395L15.9704 13.1843C15.6204 13.0809 15.3426 12.9834 15.1369 12.8921C14.9311 12.8007 14.7791 12.7003 14.681 12.5908C14.5827 12.4812 14.5337 12.3534 14.5337 12.2072C14.5337 12.0125 14.6057 11.839 14.7501 11.6867C14.8943 11.5347 15.0939 11.4159 15.3487 11.3307C15.6035 11.2455 15.8876 11.2028 16.2007 11.2028C16.655 11.2028 17.0971 11.2896 17.527 11.4631C17.9567 11.6366 18.3928 11.9 18.8348 12.2529L20.6217 9.94271C19.9769 9.41928 19.277 9.019 18.5217 8.74199C18.0173 8.55698 17.5044 8.43525 16.9836 8.37381V6.86554H14.8652V8.46591C14.4765 8.551 14.1077 8.67426 13.76 8.83786C13.0354 9.17884 12.4644 9.64593 12.0469 10.2395C11.6292 10.833 11.4205 11.4981 11.4205 12.2346C11.4205 13.1539 11.7444 13.9331 12.3922 14.5722C12.4687 14.6477 12.5496 14.7206 12.6342 14.7914L19.5689 14.7914C19.354 14.5961 19.1071 14.4146 18.8256 14.2481Z" fill="#FFEE71"/>
<path d="M18.8255 14.248C18.2237 13.8919 17.4624 13.5891 16.5414 13.3395L15.9703 13.1843C15.6203 13.0809 15.3425 12.9834 15.1368 12.8921C14.931 12.8007 14.779 12.7003 14.6809 12.5908C14.5826 12.4811 14.5335 12.3534 14.5335 12.2072C14.5335 12.0125 14.6056 11.839 14.75 11.6867C14.8942 11.5347 15.0938 11.4159 15.3486 11.3306C15.6034 11.2455 15.8875 11.2028 16.2006 11.2028C16.6549 11.2028 17.097 11.2896 17.5269 11.4631C17.9566 11.6366 18.3927 11.8999 18.8347 12.2529L20.6216 9.94269C19.9768 9.41926 19.2769 9.01899 18.5216 8.74199C18.0172 8.55698 17.5043 8.43525 16.9835 8.37381V6.86554H14.8651V8.46591C14.4764 8.551 14.1076 8.67426 13.7599 8.83786C13.0353 9.17884 12.4642 9.64593 12.0467 10.2395C11.6291 10.833 11.4204 11.4981 11.4204 12.2346C11.4204 13.1539 11.7443 13.9331 12.3921 14.5722C13.0399 15.2114 13.9777 15.6802 15.2059 15.9784L15.7862 16.1153C16.2405 16.225 16.5935 16.333 16.8453 16.4395C17.0971 16.5461 17.2751 16.6664 17.3795 16.8003C17.4839 16.9342 17.5361 17.0956 17.5361 17.2842C17.5361 17.5094 17.4685 17.7042 17.3335 17.8685C17.1984 18.0329 17.0049 18.1593 16.7532 18.2475C16.5014 18.3358 16.1975 18.3799 15.8414 18.3799C15.3073 18.3799 14.7837 18.2795 14.2711 18.0786C13.7583 17.8777 13.2748 17.5825 12.8204 17.1929L10.9784 19.4848C11.6599 20.0509 12.429 20.4877 13.2856 20.7951C13.8139 20.9847 14.3404 21.1154 14.8651 21.188V22.7172H16.9835V21.1572C17.4599 21.072 17.9043 20.9329 18.3144 20.7357C19.0358 20.3887 19.6007 19.908 20.0091 19.2931C20.4173 18.6782 20.6216 17.9843 20.6216 17.2111C20.6216 16.566 20.4726 15.9998 20.1749 15.5128C19.877 15.0258 19.4273 14.6041 18.8255 14.248Z" fill="#FFDD15"/>
<path d="M16.5415 13.3396L15.9704 13.1843C15.6204 13.0809 15.3426 12.9834 15.1369 12.8921C14.9311 12.8007 14.7791 12.7003 14.681 12.5908C14.5827 12.4811 14.5336 12.3534 14.5336 12.2072C14.5336 12.0125 14.6057 11.839 14.7501 11.6867C14.8943 11.5347 15.0939 11.4159 15.3487 11.3306C15.6035 11.2455 15.8876 11.2028 16.2007 11.2028C16.655 11.2028 17.0971 11.2896 17.527 11.4631C17.9567 11.6366 18.3928 11.8999 18.8348 12.2529L20.6216 9.94269C19.9769 9.41926 19.2769 9.01898 18.5217 8.74199C18.0173 8.55698 17.5044 8.43525 16.9836 8.37381V6.86554H14.8652V8.46591C14.4765 8.551 14.1077 8.67426 13.76 8.83786C13.0354 9.17884 12.4643 9.64593 12.0468 10.2395C11.6292 10.833 11.4205 11.4981 11.4205 12.2346C11.4205 13.1539 11.7444 13.9331 12.3922 14.5722C12.805 14.9795 13.336 15.3173 13.9843 15.5861L17.6947 13.7117C17.3429 13.5767 16.9588 13.4526 16.5415 13.3396Z" fill="#FFEE71"/>
</svg>
