<svg width="32" height="33" viewBox="0 0 32 33" fill="none" xmlns="http://www.w3.org/2000/svg">
<g clip-path="url(#clip0_216_15273)">
<path d="M21.7867 3.1665H10.2267C5.70666 3.1665 2.66666 6.33984 2.66666 11.0598V21.9545C2.66666 26.6598 5.70666 29.8332 10.2267 29.8332H21.7867C26.3067 29.8332 29.3333 26.6598 29.3333 21.9545V11.0598C29.3333 6.33984 26.3067 3.1665 21.7867 3.1665Z" fill="#10C500"/>
<path d="M21.5739 14.1531L15.2406 20.4865C15.0139 20.7131 14.7206 20.8198 14.4139 20.8198C14.1206 20.8198 13.8272 20.7131 13.6006 20.4865L10.4272 17.3265C9.97389 16.8598 9.97389 16.1265 10.4272 15.6731C10.8806 15.2198 11.6272 15.2198 12.0806 15.6731L14.4139 18.0065L19.9206 12.4998C20.3739 12.0465 21.1206 12.0465 21.5739 12.4998C22.0272 12.9665 22.0272 13.6998 21.5739 14.1531Z" fill="white"/>
</g>
<defs>
<clipPath id="clip0_216_15273">
<rect x="2.66666" y="3.1665" width="26.6667" height="26.6667" rx="13.3333" fill="white"/>
</clipPath>
</defs>
</svg>
